<svg width="96" height="34" viewBox="0 0 96 34" fill="none" xmlns="http://www.w3.org/2000/svg">
<path d="M4.71481 32.4736C3.09834 31.787 1.9309 30.9716 1.16757 30.0275C0.359335 29.1263 0.00012207 28.3538 0.00012207 27.6672C0.00012207 27.3668 0.0899242 27.1093 0.314433 26.9377C0.49404 26.766 0.718548 26.6802 1.03286 26.6802H4.89441C5.11892 26.6802 5.38833 26.8089 5.56794 27.0235C5.70264 27.1522 6.10676 27.4097 6.64558 27.8818C7.1844 28.3538 7.81303 28.6972 8.53145 28.9117C9.24988 29.1692 10.0132 29.298 10.8663 29.298C12.1236 29.298 13.1563 29.0834 13.9646 28.5684C14.7728 28.0963 15.132 27.4526 15.132 26.5943C15.132 25.9935 14.9524 25.5215 14.5932 25.0923C14.234 24.749 13.5604 24.3628 12.6624 24.0624C11.7195 23.762 10.2826 23.4187 8.44165 23.0324C5.74754 22.4745 3.81677 21.6592 2.51462 20.5434C1.25737 19.4276 0.583843 17.9685 0.583843 16.1232C0.583843 14.9216 0.943057 13.7629 1.70639 12.69C2.46972 11.6601 3.59226 10.7589 5.11892 10.0722C6.60068 9.38561 8.39675 9.08521 10.4622 9.08521C12.5726 9.08521 14.4585 9.38561 15.9851 10.0293C17.5567 10.716 18.7241 11.4884 19.5324 12.3896C20.3406 13.2908 20.6998 14.1062 20.6998 14.7928C20.6998 15.0503 20.61 15.3078 20.4304 15.4795C20.2059 15.694 19.9365 15.7799 19.6671 15.7799H16.1198C15.8055 15.7799 15.4912 15.6511 15.3116 15.4366C15.0871 15.3078 14.7279 14.9645 14.2789 14.5783C13.7401 14.192 13.2461 13.8487 12.6175 13.6341C11.9889 13.4196 11.2705 13.2908 10.4622 13.2908C9.29478 13.2908 8.39675 13.5054 7.76812 14.0204C7.1395 14.5354 6.82519 15.0932 6.82519 15.8657C6.82519 16.4236 6.95989 16.8527 7.3191 17.239C7.58851 17.5823 8.21714 17.9256 9.11517 18.226C10.0132 18.5264 11.4052 18.9126 13.2461 19.213C18.9487 20.243 21.7775 22.6462 21.7775 26.3369C21.7775 28.4826 20.8345 30.2421 18.9038 31.5295C16.973 32.8599 14.234 33.5036 10.7765 33.5036C8.30694 33.5036 6.28637 33.1603 4.71481 32.4736Z" fill="white"/>
<path d="M25.8636 32.7748C25.6391 32.5602 25.5493 32.3027 25.5493 32.0023V2.04796C25.5493 1.74756 25.6391 1.44716 25.8636 1.23259C26.0881 1.06093 26.3575 0.975098 26.6718 0.975098H30.6681C30.9824 0.975098 31.2967 1.06093 31.5212 1.23259C31.7008 1.44716 31.7906 1.74756 31.7906 2.04796V32.0023C31.7906 32.3027 31.7008 32.5602 31.5212 32.7748C31.2967 32.9893 30.9824 33.0752 30.6681 33.0752H26.6718C26.3575 33.0752 26.133 32.9893 25.8636 32.7748Z" fill="white"/>
<path d="M36.4605 32.7739C36.236 32.5593 36.1462 32.3018 36.1462 32.0014V11.4025C36.1462 11.1021 36.236 10.8016 36.4605 10.5871C36.685 10.4154 36.9544 10.3296 37.2687 10.3296H41.3099C41.6242 10.3296 41.8936 10.4154 42.1181 10.63C42.3426 10.8446 42.4324 11.1021 42.4324 11.4025V32.0014C42.4324 32.3018 42.3426 32.5593 42.1181 32.7739C41.8936 32.9885 41.6242 33.0743 41.3099 33.0743H37.2687C36.9544 33.0743 36.685 32.9885 36.4605 32.7739Z" fill="white"/>
<path d="M49.6612 30.7573C47.5957 28.912 46.4732 26.3801 46.3385 23.1186L46.2936 21.3161L46.3385 19.5137C46.4732 16.2522 47.5508 13.7203 49.6612 11.8749C51.6818 10.0296 54.5106 9.12842 57.9231 9.12842C60.4376 9.12842 62.5031 9.51465 64.2543 10.4159C65.9606 11.2741 67.2178 12.2612 68.0709 13.5057C68.8792 14.7073 69.3282 15.9089 69.418 17.0247C69.4629 17.3251 69.3731 17.5826 69.1486 17.7972C68.9241 18.0117 68.6098 18.0976 68.2954 18.0976H64.0747C63.7604 18.0976 63.4461 18.0117 63.3113 17.883C63.1766 17.7542 62.997 17.5397 62.8174 17.1534C62.3235 16.0377 61.7398 15.1794 60.9765 14.6644C60.1682 14.1494 59.1804 13.8919 58.0129 13.8919C56.3965 13.8919 55.1841 14.4069 54.2861 15.351C53.3881 16.2951 52.8492 17.7972 52.8043 19.7712L52.7594 21.4449L52.8043 22.9469C52.9839 26.895 54.7351 28.8262 58.0129 28.8262C59.2253 28.8262 60.258 28.5687 60.9765 28.0537C61.7398 27.5388 62.3684 26.7234 62.8174 25.5647C62.9521 25.2643 63.0868 24.9639 63.3113 24.8351C63.4461 24.7064 63.7155 24.6206 64.0747 24.6206H68.2954C68.6098 24.6206 68.9241 24.7064 69.1486 24.921C69.3731 25.1355 69.4629 25.393 69.418 25.6934C69.3731 26.7234 68.8792 27.8821 68.0709 29.0837C67.2627 30.2853 66.0055 31.4011 64.2992 32.2593C62.5929 33.1176 60.4825 33.5897 57.9231 33.5897C54.4657 33.5039 51.6818 32.6027 49.6612 30.7573Z" fill="white"/>
<path d="M75.929 30.6283C73.8635 28.6972 72.741 25.9506 72.6062 22.3887L72.5613 21.2729C72.5613 17.5394 73.5941 14.5354 75.7045 12.3467C77.725 10.1581 80.6437 9.08521 84.2807 9.08521C88.0076 9.08521 90.9711 10.1581 92.9917 12.3467C95.0122 14.5354 96.0001 17.4106 96.0001 21.0154V21.9596C96.0001 22.26 95.9103 22.5175 95.6858 22.732C95.4613 22.9466 95.1469 23.0324 94.8326 23.0324H79.117V23.4187C79.1619 25.0923 79.7007 26.5085 80.5988 27.5814C81.4968 28.6972 82.7091 29.255 84.2807 29.255C86.0768 29.255 87.5585 28.5684 88.6811 27.1951C88.9505 26.8947 89.2199 26.6373 89.3546 26.5514C89.4893 26.5085 89.7587 26.4656 90.1628 26.4656H94.3387C94.6081 26.4656 94.8775 26.5514 95.102 26.6802C95.2817 26.8089 95.3715 27.0235 95.3715 27.3239C95.3715 28.0534 94.9673 28.9117 94.0244 29.8558C93.1264 30.8429 91.7793 31.7012 90.1628 32.4307C88.5015 33.1603 86.5707 33.5036 84.3256 33.5036C80.7335 33.5036 77.9496 32.5595 75.929 30.6283ZM89.4444 19.1272C89.4444 17.3677 88.9505 15.9086 88.0525 14.8358C87.1095 13.8058 85.8074 13.2479 84.2358 13.2479C82.6193 13.2479 81.3621 13.8058 80.4641 14.8358C79.566 15.9086 79.0721 17.3677 79.0721 19.1272V19.213H89.4444V19.1272Z" fill="white"/>
<path d="M37.8972 5.48058C39.1096 6.63928 40.771 7.36882 42.6119 7.36882V0.931641H35.9216C35.9216 2.69114 36.6849 4.32189 37.8972 5.48058Z" fill="white"/>
</svg>
